{
  "accessors": [
    {
      "bufferView": 2,
      "componentType": 5126,
      "count": 5291,
      "max": [
        0.67609995603561401,
        0.41617819666862488,
        1.5933322906494141
      ],
      "min": [
        -0.67609995603561401,
        -0.48284986615180969,
        -0.0066882707178592682
      ],
      "type": "VEC3"
    },
    {
      "bufferView": 2,
      "byteOffset": 63492,
      "componentType": 5126,
      "count": 5291,
      "max": [
        0.99997729063034058,
        0.99982935190200806,
        0.99993467330932617
      ],
      "min": [
        -0.99997454881668091,
        -1.0000027418136597,
        -1.0000077486038208
      ],
      "type": "VEC3"
    },
    {
      "bufferView": 3,
      "componentType": 5126,
      "count": 5291,
      "max": [
        0.99997973442077637,
        0.99991154670715332,
        1,
        1
      ],
      "min": [
        -0.99997973442077637,
        -0.99999988079071045,
        -0.99982059001922607,
        -1
      ],
      "type": "VEC4"
    },
    {
      "bufferView": 1,
      "componentType": 5126,
      "count": 5291,
      "max": [
        0.97930997610092163,
        0.97521001100540161
      ],
      "min": [
        0.020689999684691429,
        0.020689999684691429
      ],
      "type": "VEC2"
    },
    {
      "bufferView": 0,
      "componentType": 5125,
      "count": 28488,
      "max": [
        5290
      ],
      "min": [
        0
      ],
      "type": "SCALAR"
    },
    {
      "bufferView": 4,
      "componentType": 5126,
      "count": 1,
      "max": [
        1,
        0,
        0,
        0,
        0,
        1,
        0,
        0,
        0,
        0,
        1,
        0,
        0,
        0,
        0,
        1
      ],
      "min": [
        1,
        0,
        0,
        0,
        0,
        1,
        0,
        0,
        0,
        0,
        1,
        0,
        0,
        0,
        0,
        1
      ],
      "type": "MAT4"
    }
  ],
  "asset": {
    "extras": {
      "author": "Juan Mendoza (https://sketchfab.com/juanmendoza)",
      "license": "CC-BY-4.0 (http://creativecommons.org/licenses/by/4.0/)",
      "source": "https://sketchfab.com/3d-models/retsuko-from-aggretsuko-for-vr-chat-2438913800ce42a2ac0d742bcd037039",
      "title": "Retsuko from Aggretsuko for VR Chat"
    },
    "generator": "Sketchfab-6.10.0",
    "version": "2.0"
  },
  "bufferViews": [
    {
      "buffer": 0,
      "byteLength": 113952,
      "byteOffset": 0,
      "name": "floatBufferViews",
      "target": 34963
    },
    {
      "buffer": 0,
      "byteLength": 42328,
      "byteOffset": 113952,
      "byteStride": 8,
      "name": "floatBufferViews",
      "target": 34962
    },
    {
      "buffer": 0,
      "byteLength": 126984,
      "byteOffset": 156280,
      "byteStride": 12,
      "name": "floatBufferViews",
      "target": 34962
    },
    {
      "buffer": 0,
      "byteLength": 84656,
      "byteOffset": 283264,
      "byteStride": 16,
      "name": "floatBufferViews",
      "target": 34962
    },
    {
      "buffer": 0,
      "byteLength": 64,
      "byteOffset": 367920,
      "byteStride": 64,
      "name": "floatBufferViews"
    }
  ],
  "buffers": [
    {
      "byteLength": 367984,
      "uri": "scene.bin"
    }
  ],
  "images": [
    {
      "uri": "textures/Aggretsukko_baseColor.png"
    }
  ],
  "materials": [
    {
      "doubleSided": true,
      "emissiveFactor": [
        0,
        0,
        0
      ],
      "name": "Aggretsukko",
      "pbrMetallicRoughness": {
        "baseColorFactor": [
          1,
          1,
          1,
          1
        ],
        "baseColorTexture": {
          "index": 0,
          "texCoord": 0
        },
        "metallicFactor": 0,
        "roughnessFactor": 0.75171493899999997
      }
    }
  ],
  "meshes": [
    {
      "name": "Aggretsukko_0",
      "primitives": [
        {
          "attributes": {
            "NORMAL": 1,
            "POSITION": 0,
            "TANGENT": 2,
            "TEXCOORD_0": 3
          },
          "indices": 4,
          "material": 0,
          "mode": 4
        }
      ]
    }
  ],
  "nodes": [
    {
      "children": [
        1
      ],
      "name": "RootNode (gltf orientation matrix)",
      "rotation": [
        -0.70710678118654746,
        -0,
        -0,
        0.70710678118654757
      ]
    },
    {
      "children": [
        2
      ],
      "name": "RootNode (model correction matrix)"
    },
    {
      "children": [
        3
      ],
      "name": "Root"
    },
    {
      "children": [
        4,
        5
      ],
      "name": "Retsuko"
    },
    {
      "name": "Retsuko_rootJoint"
    },
    {
      "children": [
        6
      ],
      "name": "Aggretsukko"
    },
    {
      "mesh": 0,
      "name": "Aggretsukko_0"
    }
  ],
  "samplers": [
    {
      "magFilter": 9729,
      "minFilter": 9987,
      "wrapS": 10497,
      "wrapT": 10497
    }
  ],
  "scene": 0,
  "scenes": [
    {
      "name": "OSG_Scene",
      "nodes": [
        0
      ]
    }
  ],
  "skins": [
    {
      "inverseBindMatrices": 5,
      "joints": [
        4
      ],
      "skeleton": 4
    }
  ],
  "textures": [
    {
      "sampler": 0,
      "source": 0
    }
  ]
}

